<svg width="150" height="31" viewBox="0 0 150 31" fill="none" xmlns="http://www.w3.org/2000/svg">
<g clip-path="url(#clip0_146_2)">
<path d="M17.4014 28.2682C16.9039 28.9544 16.0462 29.5681 14.8285 30.1092C13.6108 30.6503 12.2818 30.9208 10.8415 30.9208C8.61561 30.9208 6.6843 30.4193 5.0476 29.4163C3.41089 28.4134 2.16045 27.0475 1.29627 25.3186C0.43209 23.5898 0 21.6696 0 19.5581C0 17.4466 0.43209 15.5264 1.29627 13.7976C2.16045 12.0688 3.41089 10.7029 5.0476 9.69987C6.6843 8.69689 8.61561 8.1954 10.8415 8.1954C12.3342 8.1954 13.6501 8.45275 14.7893 8.96743C15.9284 9.48212 16.7991 10.1354 17.4014 10.9272V8.6705H23.215V30.4457H17.4014V28.2682ZM16.0266 15.1041C14.9529 13.9559 13.5126 13.3819 11.7057 13.3819C9.8726 13.3819 8.42575 13.9559 7.36517 15.1041C6.30458 16.2522 5.77429 17.7369 5.77429 19.5581C5.77429 21.3265 6.31768 22.7914 7.40445 23.9527C8.49122 25.1141 9.92497 25.6948 11.7057 25.6948C13.5388 25.6948 14.9857 25.1471 16.0462 24.0517C17.1068 22.9564 17.6371 21.4585 17.6371 19.5581C17.6371 17.7369 17.1003 16.2522 16.0266 15.1041ZM31.7763 5.44381C31.1478 6.06407 30.3884 6.3742 29.498 6.3742C28.5814 6.3742 27.8024 6.06407 27.1608 5.44381C26.5192 4.82354 26.1984 4.06471 26.1984 3.16731C26.1984 2.2963 26.5192 1.55066 27.1608 0.930396C27.8024 0.310133 28.5814 0 29.498 0C30.3884 0 31.1478 0.310133 31.7763 0.930396C32.4048 1.55066 32.719 2.2963 32.719 3.16731C32.719 4.06471 32.4048 4.82354 31.7763 5.44381ZM26.5519 8.71009H32.4441V30.4457H26.5519V8.71009ZM45.7976 14.3519C44.6715 14.629 43.6371 15.2822 42.6944 16.3116C41.7517 17.341 41.2803 18.8455 41.2803 20.825V30.4457H35.4274V8.6705H41.2803V11.5607C42.2492 10.2673 43.4342 9.38974 44.8352 8.92784C46.2362 8.46594 47.5129 8.24819 48.6651 8.27459V14.0549C47.8795 13.9757 46.9236 14.0747 45.7976 14.3519ZM53.8875 29.4757C52.0806 28.4596 50.6468 27.0805 49.5862 25.3384C48.5257 23.5964 47.9954 21.696 47.9954 19.6373C47.9954 17.5785 48.5257 15.6848 49.5862 13.9559C50.6468 12.2271 52.074 10.8546 53.8679 9.83844C55.6617 8.82227 57.6192 8.31418 59.7403 8.31418C62.0186 8.31418 64.0809 8.86186 65.9271 9.95722C67.7733 11.0526 69.2463 12.6164 70.3462 14.6488L65.0433 16.7471C64.4148 15.665 63.6423 14.8533 62.7257 14.3123C61.8091 13.7712 60.814 13.5006 59.7403 13.5006C58.0382 13.5006 56.6306 14.0813 55.5177 15.2427C54.4047 16.404 53.8482 17.8689 53.8482 19.6373C53.8482 21.4057 54.4112 22.8706 55.5373 24.0319C56.6633 25.1933 58.0775 25.7739 59.7796 25.7739C62.1365 25.7739 63.9565 24.7182 65.2397 22.6066L70.2283 24.5862C68.1596 28.8621 64.6766 31 59.7796 31C57.6585 31 55.6944 30.4919 53.8875 29.4757ZM71.8369 0.514688H77.729V30.4457H71.8369V0.514688ZM85.4065 29.4361C83.6127 28.42 82.192 27.0409 81.1445 25.2989C80.097 23.5568 79.5733 21.6565 79.5733 19.5977C79.5733 17.5653 80.097 15.6782 81.1445 13.9361C82.192 12.1941 83.6127 10.815 85.4065 9.79885C87.2003 8.78267 89.1578 8.27459 91.279 8.27459C93.4001 8.27459 95.3642 8.78267 97.1711 9.79885C98.978 10.815 100.412 12.1941 101.472 13.9361C102.533 15.6782 103.063 17.5653 103.063 19.5977C103.063 21.6565 102.533 23.5568 101.472 25.2989C100.412 27.0409 98.978 28.42 97.1711 29.4361C95.3642 30.4523 93.4001 30.9604 91.279 30.9604C89.1578 30.9604 87.2003 30.4523 85.4065 29.4361ZM88.2936 14.2727C87.3771 14.8138 86.6569 15.5528 86.1332 16.4898C85.6094 17.4268 85.3476 18.4628 85.3476 19.5977C85.3476 20.7854 85.6029 21.8478 86.1135 22.7848C86.6242 23.7218 87.3312 24.4608 88.2347 25.0019C89.1382 25.543 90.1529 25.8135 91.279 25.8135C92.3788 25.8135 93.3805 25.543 94.284 25.0019C95.1874 24.4608 95.901 23.7152 96.4248 22.765C96.9485 21.8148 97.2104 20.759 97.2104 19.5977C97.2104 18.4628 96.9485 17.4268 96.4248 16.4898C95.901 15.5528 95.1874 14.8138 94.284 14.2727C93.3805 13.7316 92.3788 13.461 91.279 13.461C90.2053 13.461 89.2102 13.7316 88.2936 14.2727ZM104.672 21.6169V8.74968H110.603V21.6169C110.603 23.1741 110.989 24.2893 111.762 24.9623C112.535 25.6354 113.549 25.9719 114.806 25.9719C115.906 25.9719 116.888 25.543 117.752 24.6852C118.617 23.8274 119.009 22.3559 118.931 20.2708V8.74968H124.823V30.4457H118.931V28.5849C118.224 29.324 117.366 29.898 116.358 30.3072C115.35 30.7163 114.283 30.9208 113.156 30.9208C107.5 30.9208 104.672 27.8195 104.672 21.6169ZM144.186 28.2682C143.689 28.9544 142.831 29.5681 141.614 30.1092C140.396 30.6503 139.067 30.9208 137.626 30.9208C135.401 30.9208 133.469 30.4193 131.833 29.4163C130.196 28.4134 128.945 27.0475 128.081 25.3186C127.217 23.5898 126.785 21.6696 126.785 19.5581C126.785 17.4466 127.217 15.5264 128.081 13.7976C128.945 12.0688 130.196 10.7029 131.833 9.69987C133.469 8.69689 135.401 8.1954 137.626 8.1954C139.119 8.1954 140.435 8.45275 141.574 8.96743C142.713 9.48212 143.584 10.1354 144.186 10.9272V0.514688H150V30.4457H144.186V28.2682ZM142.812 15.1041C141.738 13.9559 140.298 13.3819 138.491 13.3819C136.658 13.3819 135.211 13.9559 134.15 15.1041C133.09 16.2522 132.559 17.7369 132.559 19.5581C132.559 21.3265 133.103 22.7914 134.189 23.9527C135.276 25.1141 136.71 25.6948 138.491 25.6948C140.324 25.6948 141.771 25.1471 142.831 24.0517C143.892 22.9564 144.422 21.4585 144.422 19.5581C144.422 17.7369 143.885 16.2522 142.812 15.1041Z" fill="black"/>
</g>
<defs>
<clipPath id="clip0_146_2">
<rect width="150" height="31" fill="white"/>
</clipPath>
</defs>
</svg>
