<svg width="350" height="72" viewBox="0 0 350 72" fill="none" xmlns="http://www.w3.org/2000/svg">
<g clip-path="url(#clip0_146_5)">
<path d="M40.6034 65.442C39.4424 67.0307 37.4412 68.4513 34.5999 69.7039C31.7586 70.9566 28.6576 71.5829 25.2969 71.5829C20.1031 71.5829 15.5967 70.4219 11.7777 68.1C7.95875 65.778 5.04105 62.6159 3.02463 58.6136C1.00821 54.6114 0 50.1661 0 45.2778C0 40.3895 1.00821 35.9442 3.02463 31.9419C5.04105 27.9396 7.95875 24.7775 11.7777 22.4556C15.5967 20.1336 20.1031 18.9727 25.2969 18.9727C28.7798 18.9727 31.8503 19.5684 34.5083 20.76C37.1663 21.9515 39.198 23.4638 40.6034 25.2969V20.0725H54.1684V70.483H40.6034V65.442ZM37.3954 34.9665C34.8902 32.3085 31.5295 30.9795 27.3133 30.9795C23.0361 30.9795 19.6601 32.3085 17.1854 34.9665C14.7107 37.6245 13.4733 41.0616 13.4733 45.2778C13.4733 49.3717 14.7412 52.763 17.277 55.4515C19.8128 58.1401 23.1583 59.4844 27.3133 59.4844C31.5906 59.4844 34.9665 58.2165 37.4412 55.6807C39.9159 53.1449 41.1533 49.6772 41.1533 45.2778C41.1533 41.0616 39.9007 37.6245 37.3954 34.9665ZM74.1446 12.6026C72.6782 14.0386 70.9062 14.7565 68.8286 14.7565C66.69 14.7565 64.8722 14.0386 63.3751 12.6026C61.8781 11.1667 61.1296 9.40996 61.1296 7.33243C61.1296 5.31601 61.8781 3.58984 63.3751 2.1539C64.8722 0.717969 66.69 0 68.8286 0C70.9062 0 72.6782 0.717969 74.1446 2.1539C75.6111 3.58984 76.3444 5.31601 76.3444 7.33243C76.3444 9.40996 75.6111 11.1667 74.1446 12.6026ZM61.9545 20.1642H75.7028V70.483H61.9545V20.1642ZM106.861 33.2251C104.234 33.8667 101.82 35.379 99.6203 37.762C97.4205 40.1451 96.3207 43.628 96.3207 48.2108V70.483H82.664V20.0725H96.3207V26.7634C98.5815 23.7693 101.346 21.7376 104.615 20.6683C107.885 19.599 110.863 19.0949 113.552 19.156V32.5377C111.719 32.3544 109.489 32.5835 106.861 33.2251ZM125.737 68.2375C121.521 65.885 118.176 62.6923 115.701 58.6595C113.227 54.6266 111.989 50.2272 111.989 45.4611C111.989 40.695 113.227 36.3108 115.701 32.3085C118.176 28.3062 121.506 25.1289 125.692 22.7764C129.877 20.4239 134.445 19.2476 139.394 19.2476C144.71 19.2476 149.522 20.5155 153.83 23.0513C158.138 25.5871 161.575 29.2075 164.141 33.9125L151.768 38.7702C150.301 36.265 148.499 34.3861 146.36 33.1334C144.221 31.8808 141.899 31.2545 139.394 31.2545C135.422 31.2545 132.138 32.5988 129.541 35.2873C126.944 37.9759 125.646 41.3671 125.646 45.4611C125.646 49.555 126.96 52.9463 129.587 55.6348C132.214 58.3234 135.514 59.6677 139.486 59.6677C144.985 59.6677 149.232 57.2235 152.226 52.3352L163.866 56.918C159.039 66.8168 150.912 71.7662 139.486 71.7662C134.536 71.7662 129.954 70.5899 125.737 68.2375ZM167.619 1.19152H181.368V70.483H167.619V1.19152ZM199.282 68.1458C195.096 65.7933 191.781 62.6006 189.337 58.5678C186.893 54.535 185.671 50.1355 185.671 45.3694C185.671 40.6645 186.893 36.2955 189.337 32.2627C191.781 28.2299 195.096 25.0372 199.282 22.6847C203.467 20.3322 208.035 19.156 212.984 19.156C217.934 19.156 222.516 20.3322 226.733 22.6847C230.949 25.0372 234.294 28.2299 236.769 32.2627C239.244 36.2955 240.481 40.6645 240.481 45.3694C240.481 50.1355 239.244 54.535 236.769 58.5678C234.294 62.6006 230.949 65.7933 226.733 68.1458C222.516 70.4983 217.934 71.6745 212.984 71.6745C208.035 71.6745 203.467 70.4983 199.282 68.1458ZM206.018 33.0418C203.88 34.2944 202.199 36.0053 200.977 38.1745C199.755 40.3437 199.144 42.742 199.144 45.3694C199.144 48.1191 199.74 50.5785 200.932 52.7477C202.123 54.9169 203.773 56.6278 205.881 57.8804C207.989 59.133 210.357 59.7593 212.984 59.7593C215.551 59.7593 217.888 59.133 219.996 57.8804C222.104 56.6278 223.769 54.9016 224.991 52.7019C226.213 50.5021 226.824 48.058 226.824 45.3694C226.824 42.742 226.213 40.3437 224.991 38.1745C223.769 36.0053 222.104 34.2944 219.996 33.0418C217.888 31.7892 215.551 31.1628 212.984 31.1628C210.479 31.1628 208.157 31.7892 206.018 33.0418ZM244.234 50.0439V20.2558H258.074V50.0439C258.074 53.649 258.975 56.2306 260.778 57.7887C262.581 59.3469 264.948 60.126 267.881 60.126C270.448 60.126 272.739 59.133 274.755 57.1472C276.772 55.1613 277.688 51.7548 277.505 46.9276V20.2558H291.253V70.483H277.505V66.1752C275.855 67.8861 273.854 69.2151 271.502 70.1622C269.149 71.1093 266.659 71.5829 264.032 71.5829C250.833 71.5829 244.234 64.4032 244.234 50.0439ZM336.435 65.442C335.274 67.0307 333.273 68.4513 330.432 69.7039C327.59 70.9566 324.489 71.5829 321.128 71.5829C315.935 71.5829 311.428 70.4219 307.609 68.1C303.79 65.778 300.873 62.6159 298.856 58.6136C296.84 54.6114 295.832 50.1661 295.832 45.2778C295.832 40.3895 296.84 35.9442 298.856 31.9419C300.873 27.9396 303.79 24.7775 307.609 22.4556C311.428 20.1336 315.935 18.9727 321.128 18.9727C324.611 18.9727 327.682 19.5684 330.34 20.76C332.998 21.9515 335.03 23.4638 336.435 25.2969V1.19152H350V70.483H336.435V65.442ZM333.227 34.9665C330.722 32.3085 327.361 30.9795 323.145 30.9795C318.868 30.9795 315.492 32.3085 313.017 34.9665C310.542 37.6245 309.305 41.0616 309.305 45.2778C309.305 49.3717 310.573 52.763 313.109 55.4515C315.644 58.1401 318.99 59.4844 323.145 59.4844C327.422 59.4844 330.798 58.2165 333.273 55.6807C335.748 53.1449 336.985 49.6772 336.985 45.2778C336.985 41.0616 335.732 37.6245 333.227 34.9665Z" fill="white"/>
</g>
<defs>
<clipPath id="clip0_146_5">
<rect width="350" height="71.7662" fill="white"/>
</clipPath>
</defs>
</svg>
